<svg height='300px' width='300px'  fill="#000000" xmlns="http://www.w3.org/2000/svg" xmlns:xlink="http://www.w3.org/1999/xlink" 
xml:space="preserve" version="1.1" style="shape-rendering:geometricPrecision;text-rendering:geometricPrecision;image-rendering:optimizeQuality;"
 viewBox="0 0 1.548 1.17" x="0px" y="0px" fill-rule="evenodd" clip-rule="evenodd"><defs><style type="text/css">
   
    .fil0 {fill:#000000}
   
  </style></defs><g><path class="fil0" d="M1.508 0.666l-0.626 0.479c-0.018,0.015 -0.041,0.025 -0.067,0.025 -0.057,0 -0.103,-0.046 -0.103,-0.102l0 -0.221 -0.61 0c-0.056,0 -0.102,-0.045 -0.102,-0.102l0 -0.32c0,-0.057 0.046,-0.103 0.102,-0.103l0.61 0 0 -0.22 0.001 0c0,-0.021 0.006,-0.043 0.021,-0.062 0.034,-0.045 0.098,-0.053 0.143,-0.019l0.63 0.482c0.007,0.005 0.014,0.012 0.02,0.02 0.035,0.045 0.026,0.109 -0.019,0.143z"></path></g></svg>