<svg height='300px' width='300px'  fill="#000000" xmlns="http://www.w3.org/2000/svg" xmlns:xlink="http://www.w3.org/1999/xlink" xml:space="preserve" version="1.1" style="shape-rendering:geometricPrecision;text-rendering:geometricPrecision;image-rendering:optimizeQuality;" viewBox="0 0 1.568 1.185" x="0px" y="0px" fill-rule="evenodd" clip-rule="evenodd"><defs><style type="text/css">
   
    .fil0 {fill:#000000}
   
  </style></defs><g><path class="fil0" d="M0.041 0.674l0.633 0.485c0.019,0.016 0.043,0.026 0.069,0.026 0.057,0 0.103,-0.047 0.103,-0.104l0 -0.223 0.618 0c0.057,0 0.104,-0.046 0.104,-0.104l0 -0.324c0,-0.057 -0.047,-0.104 -0.104,-0.104l-0.618 0 0 -0.223 0 0c0,-0.021 -0.007,-0.044 -0.021,-0.062 -0.035,-0.046 -0.1,-0.054 -0.145,-0.02l-0.638 0.488c-0.008,0.005 -0.015,0.012 -0.021,0.02 -0.034,0.046 -0.026,0.111 0.02,0.145z"></path></g></svg>